# xmcd
#
# Track frame offsets: 
#        150
#        11107
#        25420
#        42005
#        56065
#        73902
#        86980
#        101440
#        116235
#        129227
#
# Disc length: 1949 seconds
#
# Revision: 1
# Processed by: cddbd v1.5.2PL0 Copyright (c) Steve Scherf et al.
# Submitted via: ExactAudioCopy v1.3
#
DISCID=8b079b0a
DTITLE=Ricky Skaggs - Uncle Pen
DYEAR=1900
DGENRE=Country
TTITLE0=Uncle Pen
TTITLE1=Don't Get Above Your Raisin'
TTITLE2=Your Old Love Letters
TTITLE3=If That's The Way You Feel
TTITLE4=Don't Let Your Sweet Love Die
TTITLE5=Lost To A Stranger
TTITLE6=Hold Whatcha Got
TTITLE7=Wheel Hoss
TTITLE8=I'm Ready To Go
TTITLE9=Can't You Hear Me Callin'
EXTD=
EXTT0=
EXTT1=
EXTT2=
EXTT3=
EXTT4=
EXTT5=
EXTT6=
EXTT7=
EXTT8=
EXTT9=
PLAYORDER=
